<svg xmlns="http://www.w3.org/2000/svg" xmlns:xlink="http://www.w3.org/1999/xlink" preserveAspectRatio="xMidYMid meet" version="1.0" viewBox="-1.0 -15.0 2782.6 515.0" zoomAndPan="magnify" style="fill: rgb(0, 0, 0);" original_string_length="15572"><g id="__id2_sdx64jg1vj"><path d="M1192.196,214.06c-36.313,18.9-85.333,39.873-144.626,54.63c-19.191-33.913-62.3-93.127-142.183-125.699 c-71.412-29.118-136.903-21.66-169.578-14.624c-0.07,0.015-0.12,0.071-0.188,0.09c-0.335,0.094-0.634,0.25-0.927,0.441 c-0.123,0.08-0.256,0.131-0.368,0.226c-0.369,0.314-0.689,0.693-0.903,1.163c-0.214,0.469-0.29,0.959-0.284,1.443 c0.001,0.147,0.051,0.281,0.072,0.427c0.048,0.341,0.124,0.665,0.27,0.975c0.032,0.068,0.022,0.147,0.059,0.213 c16.148,29.274,53.516,83.576,122.346,118.329c43.359,21.89,85.45,29.431,120.789,30.465c-26.286,3.52-53.948,5.672-83.008,5.778 c-63.04,0.36-125.835-8.807-186.638-26.782c-20.675-32.602-67.154-90.394-149.7-118.834 c-72.889-25.114-137.878-14.045-170.128-5.219c-0.072,0.02-0.121,0.081-0.192,0.105c-0.322,0.111-0.606,0.281-0.883,0.483 c-0.123,0.089-0.257,0.149-0.366,0.254c-0.35,0.334-0.647,0.729-0.836,1.209c-0.188,0.482-0.238,0.975-0.205,1.459 c0.01,0.144,0.066,0.273,0.094,0.415c0.067,0.342,0.162,0.664,0.328,0.968c0.035,0.065,0.03,0.144,0.07,0.207 c17.749,28.339,58.069,80.491,128.712,111.376c41.315,18.065,80.86,23.853,114.584,23.853c31.573,0,57.992-5.073,76.022-9.903 c25.281,7.499,50.913,13.381,76.756,17.791c-111.669,21.365-225.545,31.299-338.951,29.151 c-76.76-1.428-154.362-8.37-230.656-20.634c-2.217-0.679-4.373,1.055-4.373,3.262c0,1.365,0.805,2.543,1.967,3.089 c0.313,0.16,0.649,0.27,0.998,0.326c76.717,12.351,154.752,19.34,231.938,20.774c10.147,0.19,20.302,0.283,30.456,0.283 c15.005,0,30.014-0.248,45.022-0.66c-29.517,6.957-58.12,17.172-85.475,30.71c-37.149,18.388-71.149,42.41-101.052,71.395 c-1.351,1.308-1.385,3.468-0.073,4.819c0.669,0.689,1.558,1.035,2.446,1.035c0.855,0,1.711-0.32,2.373-0.962 c29.394-28.492,62.815-52.102,99.328-70.177c44.953-22.249,93.274-35.568,143.626-39.585c0.225-0.018,0.414-0.12,0.623-0.178 c74.52-4.85,148.711-14.634,221.603-29.512c0.037,0,0.067-0.02,0.104-0.021c29.905,4.163,60.054,6.325,90.278,6.325 c0.739,0,1.481,0,2.223-0.003c8.095-0.03,16.083-0.217,23.973-0.537c-32.661,9.878-69.382,27.107-104.125,57.095 c-58.369,50.378-81.483,112.112-90.066,144.428c-0.019,0.072,0.008,0.144-0.006,0.216c-0.066,0.334-0.061,0.664-0.026,1.004 c0.016,0.151,0,0.297,0.035,0.444c0.112,0.471,0.305,0.926,0.626,1.331c0.325,0.409,0.737,0.73,1.197,0.949 c0.416,0.198,0.871,0.284,1.328,0.303c0.049,0.002,0.091,0.032,0.14,0.032c0.037,0,0.073,0,0.11,0 c33.418-1.085,98.769-9.705,160.999-55.24c70.98-51.935,98.209-121.537,108.149-158.594c17.534-2.859,34.404-6.297,50.502-10.234 c0.019-0.004,0.042-0.008,0.061-0.012c0.003-0.001,0.005-0.003,0.008-0.004c61.07-14.94,111.532-36.442,148.75-55.812 c1.667-0.869,2.316-2.925,1.448-4.596C1195.927,213.844,1193.87,213.188,1192.196,214.06z M555.105,148.745 c74.268,25.589,118.623,75.517,140.936,108.114l-296.76-115.783C433.139,133.247,490.991,126.655,555.105,148.745z M516.652,247.315 c-62.149-27.175-100.243-71.198-119.851-99.89l296.76,115.783C655.066,272.086,588.625,278.776,516.652,247.315z M902.812,149.301 c72.731,29.657,114.257,81.961,134.731,115.748l-289.897-132.03C781.884,127.072,839.997,123.681,902.812,149.301z M744.822,139.222 l289.898,132.031c-38.925,6.729-105.654,9.739-175.76-25.662C798.402,215.016,762.809,168.952,744.822,139.222z M817.991,356.451 c59.46-51.318,124.924-64.551,164.323-67.445L732.997,487.282C743.253,454.081,766.639,400.775,817.991,356.451z M883.848,439.262 C829.104,479.314,771.9,490.1,737.242,492.617l249.314-198.28C974.875,332.071,947.25,392.87,883.848,439.262z M1561.32,203.656 c-0.542,1.341-1.771,2.193-3.102,2.193c-0.399,0-0.809-0.077-1.211-0.24c-0.406-0.166-0.825-0.396-1.231-0.642 c-1.607-0.978-2.12-3.075-1.141-4.683c0.978-1.607,3.072-2.123,4.683-1.142C1561.06,199.852,1562.029,201.912,1561.32,203.656z M2569.059,293.815c-76.301,12.264-153.899,19.207-230.66,20.634c-113.652,2.132-227.958-7.846-339.974-29.346 c25.444-4.389,50.682-10.211,75.58-17.594c18.036,4.83,44.444,9.901,76.015,9.901c33.721,0,73.272-5.791,114.581-23.853 c70.656-30.888,110.967-83.04,128.712-111.379c0.038-0.06,0.033-0.135,0.067-0.197c0.169-0.309,0.267-0.637,0.334-0.985 c0.027-0.138,0.081-0.263,0.09-0.404c0.032-0.484-0.017-0.978-0.205-1.46c-0.189-0.483-0.488-0.88-0.841-1.216 c-0.1-0.095-0.223-0.149-0.334-0.232c-0.286-0.213-0.582-0.388-0.917-0.502c-0.067-0.023-0.115-0.082-0.184-0.101 c-32.25-8.833-97.241-19.899-170.128,5.219c-82.562,28.445-129.031,86.239-149.702,118.837 c-60.796,17.973-123.591,27.103-186.613,26.779c-29.057-0.108-56.718-2.261-82.992-5.783c35.331-1.039,77.409-8.58,120.746-30.46 c68.806-34.739,106.194-89.048,122.349-118.329c0.035-0.063,0.026-0.137,0.056-0.201c0.151-0.316,0.23-0.646,0.278-0.994 c0.02-0.144,0.069-0.276,0.07-0.421c0.005-0.484-0.072-0.973-0.285-1.442c-0.214-0.47-0.533-0.848-0.901-1.162 c-0.114-0.097-0.25-0.149-0.376-0.23c-0.285-0.185-0.576-0.338-0.902-0.431c-0.074-0.021-0.129-0.081-0.204-0.097 c-32.689-7.032-98.187-14.487-169.582,14.624c-79.859,32.563-122.98,91.761-142.18,125.681 c-58.161-14.481-106.321-34.909-142.096-53.327c-1.674-0.865-3.728-0.21-4.589,1.468c-0.862,1.674-0.206,3.731,1.468,4.589 c36.669,18.88,86.24,39.833,146.149,54.498c0.016,0.003,0.027,0.017,0.042,0.02c0.109,0.023,0.233,0.046,0.343,0.069 c15.999,3.906,32.783,7.311,50.211,10.157c9.946,37.055,37.179,106.677,108.165,158.614c62.229,45.536,127.581,54.155,160.995,55.24 c0.04,0,0.073,0,0.113,0c0.505,0,1.007-0.116,1.47-0.336c0.459-0.22,0.871-0.54,1.199-0.949c0.322-0.406,0.514-0.864,0.626-1.337 c0.033-0.138,0.017-0.276,0.032-0.417c0.038-0.349,0.042-0.689-0.027-1.031c-0.014-0.072,0.013-0.145-0.006-0.216 c-8.593-32.32-31.724-94.06-90.066-144.421c-34.745-29.986-71.465-47.215-104.125-57.093c7.894,0.321,15.891,0.505,23.99,0.535 c0.745,0.003,1.484,0.003,2.223,0.003c30.675,0,61.28-2.209,91.629-6.499c0.133,0.041,0.249,0.117,0.388,0.142 c70.628,14.377,142.221,24.025,214.066,29.055c0.491,0.359,1.046,0.637,1.697,0.689c50.355,4.017,98.679,17.336,143.629,39.585 c36.51,18.072,69.931,41.682,99.331,70.177c0.659,0.642,1.518,0.962,2.37,0.962c0.892,0,1.777-0.346,2.449-1.035 c1.304-1.351,1.271-3.511-0.08-4.819c-29.907-28.988-63.9-53.007-101.049-71.395c-27.742-13.73-56.762-24.063-86.724-31.023 c17.766,0.577,35.534,0.973,53.296,0.973c10.151,0,20.308-0.093,30.452-0.283c77.179-1.434,155.218-8.424,231.931-20.774 c0.353-0.057,0.699-0.17,1.012-0.333c1.158-0.546,1.957-1.721,1.957-3.082C2573.432,294.877,2571.262,293.166,2569.059,293.815z M1919.56,245.591c-70.101,35.396-136.82,32.393-175.76,25.662L2033.7,139.224C2015.701,168.961,1980.098,215.029,1919.56,245.591z M1875.709,149.301c62.834-25.617,120.946-22.232,155.173-16.282l-289.903,132.03 C1761.459,231.26,1802.991,178.956,1875.709,149.301z M1791.968,294.341l249.314,198.276c-34.66-2.517-91.861-13.303-146.609-53.355 C1831.289,392.879,1803.658,332.077,1791.968,294.341z M2045.528,487.278L1796.21,289.006 c39.402,2.894,104.865,16.129,164.319,67.445C2011.862,400.758,2035.261,454.07,2045.528,487.278z M2261.872,247.315 c-71.973,31.474-138.415,24.778-176.906,15.894l296.762-115.786C2362.124,176.113,2324.035,220.135,2261.872,247.315z M2223.419,148.745c64.109-22.094,121.953-15.507,155.826-7.67l-296.757,115.783 C2104.792,224.262,2149.143,174.337,2223.419,148.745z" style="fill: rgb(65, 75, 51);"/></g><g id="__id3_sdx64jg1vj"><path d="M1425.266,23.088c-20.441,17.17-29.97,39.718-34.303,58.988c-4.303-19.2-13.822-41.745-34.363-58.988 c-45.303-38.077-116.545-25.217-154.652,10.693c-29.704,27.99-41.695,73.146-33.767,127.161 c2.559,17.396,7.405,33.914,22.711,57.963c16.571,26.169,45.269,61.194,102.357,124.932c31.235,34.869,62.336,68.729,95.078,103.515 c0.646,0.682,1.791,1.072,2.729,1.072c0.939,0,1.834-0.386,2.479-1.068c31.005-32.869,62.995-67.698,95.081-103.515 c56.335-62.845,84.808-97.508,101.551-123.624c16.008-24.904,20.981-41.712,23.517-59.277c7.934-53.999-4.054-99.158-33.767-127.158 C1541.82-2.106,1470.598-14.969,1425.266,23.088z M1357.568,39.912c19.819,16.647,26.695,40.004,29.048,57.284l0.646,6.786 c0.093,1.135,0.14,2.187,0.19,3.305l0.065,3.465c-0.18,0.469-0.286,0.97-0.238,1.504c0.123,1.391,0.129,2.773,0.164,4.156 c-0.007,0.206-0.014,0.413-0.014,0.46c-0.003,0.06-0.027,0.666-0.027,0.726c0,0.149,0.084,0.255,0.103,0.396 c0.021,15.255-5.235,29.89-15.146,41.721c-11.149,13.313-26.815,21.483-44.108,23.011c-13.672,1.218-26.961-2.979-37.472-11.782 c-10.507-8.803-16.96-21.17-18.165-34.822c-1.957-22.175,14.491-41.811,36.663-43.772c17.456-1.491,32.749,11.349,34.28,28.712 c1.195,13.519-8.833,25.487-22.352,26.685c-10.467,0.902-19.683-6.826-20.608-17.263c-0.163-1.874-1.8-3.242-3.694-3.095 c-1.877,0.166-3.262,1.82-3.095,3.694c1.255,14.185,13.868,24.675,27.996,23.453c17.263-1.528,30.066-16.814,28.542-34.073 c-1.87-21.11-20.594-36.756-41.668-34.902c-25.92,2.293-45.143,25.244-42.853,51.16c2.666,30.199,28.103,53.024,57.866,53.024 c1.707-0.003,3.428-0.077,5.159-0.23c19.11-1.687,36.417-10.717,48.734-25.424c6.073-7.249,10.558-15.458,13.359-24.201 c2.802,8.743,7.286,16.952,13.359,24.201c12.318,14.707,29.624,23.736,48.734,25.424c1.734,0.153,3.451,0.23,5.159,0.23 c29.764-0.003,55.201-22.824,57.866-53.024c2.29-25.916-16.934-48.867-42.853-51.16c-21.11-1.857-39.801,13.792-41.668,34.902 c-1.524,17.26,11.279,32.546,28.542,34.073c6.883,0.626,13.569-1.498,18.854-5.927c5.288-4.43,8.537-10.653,9.142-17.526 c0.166-1.874-1.221-3.528-3.095-3.694c-1.914-0.153-3.528,1.221-3.694,3.095c-0.446,5.059-2.836,9.638-6.729,12.9 c-3.891,3.258-8.836,4.826-13.878,4.363c-13.519-1.198-23.547-13.166-22.352-26.685c1.538-17.363,16.857-30.206,34.28-28.712 c22.172,1.96,38.62,21.596,36.663,43.772c-1.205,13.652-7.658,26.019-18.165,34.822c-10.507,8.8-23.786,12.983-37.471,11.782 c-17.293-1.528-32.959-9.698-44.108-23.011c-9.948-11.876-15.2-26.576-15.139-41.893c0.007-0.083,0.076-0.139,0.076-0.225 c0-0.047-0.02-0.755-0.023-0.802l-0.008-0.106c0.031-1.476,0.044-2.95,0.175-4.434c0.047-0.523-0.05-1.015-0.223-1.476 c0.01-0.953,0.034-1.959,0.067-3.037c0.006-0.189,0.01-0.351,0.017-0.547c0.044-0.954,0.117-1.959,0.242-3.623 c0.097-2.057,0.336-4.353,0.626-6.743c0-0.004,0.001-0.008,0.002-0.012c2.237-16.724,9.084-40.155,29.006-56.906 c36.127-30.329,93.111-19.886,123.67,8.896c23.883,22.518,33.448,59.118,26.938,103.062c-2.1,14.398-6.224,28.193-19.526,48.731 c-14.248,22.036-38.294,51.257-85.773,104.221c-25.224,28.163-50.99,56.232-78.697,85.733 c-27.078-28.762-52.864-56.835-78.744-85.733c-86.029-96.033-100.427-120.092-105.249-152.958 c-6.513-43.965,3.035-80.564,26.885-103.056c17.709-16.674,44.291-27.191,70.556-27.191 C1323.465,21.617,1342.365,27.162,1357.568,39.912z M1606.935,159.961c-2.41,16.691-7.156,32.699-22.502,56.572 c-16.534,25.79-44.82,60.209-100.892,122.758c-31.235,34.869-62.379,68.796-92.605,100.886 c-31.844-33.867-62.163-66.899-92.609-100.886c-56.818-63.434-85.323-98.207-101.681-124.04 c-14.664-23.037-19.29-38.769-21.726-55.314c-7.591-51.736,3.664-94.775,31.7-121.197c20.841-19.633,52.112-32.013,83.007-32.013 c21.321,0,42.425,5.997,59.83,19.485c-38.568-21.623-90.898-10.033-120.285,17.637c-25.517,24.066-35.801,62.779-28.951,109.01 c5.052,34.433,19.696,59.151,106.913,156.509c26.682,29.79,53.257,58.705,81.246,88.392c0.642,0.686,1.737,1.072,2.676,1.072 c0.939,0,1.837-0.389,2.483-1.072c28.652-30.469,55.21-59.381,81.19-88.389c47.735-53.25,71.964-82.711,86.418-105.066 c13.971-21.573,18.318-36.17,20.548-51.443c6.846-46.208-3.455-84.921-29.005-109.013c-29.365-27.655-81.629-39.252-120.165-17.683 c42.646-32.907,107.54-20.568,142.72,12.574C1603.288,65.169,1614.543,108.215,1606.935,159.961z M125.443,199.796 c-36.124-11.575-68.862-8.064-89.969-3.092c-8.889,2.097-15.918,8.151-19.29,16.607c-3.368,8.457-2.43,17.686,2.583,25.317 c1.149,1.751,2.467,3.613,3.795,5.479c-2.721,1.245-5.281,2.497-7.656,3.727c-8.107,4.197-13.449,11.782-14.654,20.804 s1.957,17.746,8.68,23.926c15.958,14.68,42.783,33.777,79.945,41.385c11.256,2.306,22.092,3.298,32.403,3.298 c32.183,0,59.247-9.648,78.001-19.07c7.827-3.934,13.248-11.326,14.736-19.892c1.056-1.582,1.989-3.259,2.707-5.062 c3.371-8.457,2.336-18.022-2.766-25.587C198.469,244.662,170.539,214.243,125.443,199.796z M24.464,234.887 c-3.774-5.748-4.483-12.69-1.95-19.054c2.536-6.363,7.831-10.916,14.524-12.494c10.267-2.423,23.393-4.48,38.36-4.48 c14.567,0,30.882,1.954,47.968,7.425c43.232,13.852,70.054,43.079,84.941,65.158c2.137,3.173,3.237,6.72,3.455,10.338 c-1.545-3.245-3.699-6.217-6.457-8.691c-20.631-18.504-55.141-41.196-102.39-44.208c-29.717-1.895-55.064,4.739-73.951,12.501 C27.337,239.145,25.827,236.963,24.464,234.887z M207.477,295.693c-2.902,3.772-6.98,6.463-11.84,7.544 c-25.996,5.791-65.578,8.563-106.477-11.116c-25.696-12.361-43.758-29.792-55.908-45.151c15.762-6.273,35.983-11.597,59.396-11.597 c3.218,0,6.5,0.1,9.835,0.313c45.299,2.889,78.444,24.695,98.27,42.477C205.778,282.674,208.167,289.039,207.477,295.693z M196.219,312.087c-23.793,11.955-61.491,24.299-105.978,15.186c-35.628-7.295-61.371-25.63-76.697-39.728 c-5.062-4.653-7.445-11.216-6.536-18.005c0.905-6.786,4.929-12.494,11.033-15.656c2.657-1.376,5.624-2.773,8.728-4.161 c12.651,16.35,31.794,35.244,59.435,48.542c25.107,12.078,49.699,16.052,71.205,16.052c15.043,0,28.579-1.944,39.711-4.423 c1.342-0.299,2.633-0.724,3.896-1.209C199.593,309.997,198.027,311.179,196.219,312.087z M2780.482,268.641 c-1.205-9.026-6.543-16.611-14.65-20.807c-2.375-1.231-4.934-2.483-7.654-3.729c1.328-1.865,2.645-3.727,3.793-5.477 c5.012-7.635,5.951-16.864,2.583-25.32c-3.375-8.457-10.404-14.507-19.283-16.604c-21.114-4.972-53.862-8.48-89.973,3.092 c-45.09,14.441-73.026,44.863-88.522,67.841c-5.099,7.568-6.13,17.137-2.762,25.59c0.718,1.802,1.65,3.478,2.705,5.058 c1.49,8.567,6.912,15.96,14.741,19.893c18.751,9.422,45.809,19.07,77.992,19.07c10.311-0.003,21.154-0.992,32.409-3.298 c37.162-7.608,63.987-26.705,79.948-41.385C2778.525,286.384,2781.694,277.664,2780.482,268.641z M2572.434,271.447 c14.89-22.086,41.715-51.313,84.941-65.162c17.087-5.475,33.395-7.425,47.965-7.425c14.963,0,28.096,2.057,38.36,4.48 c6.696,1.578,11.988,6.13,14.517,12.49c2.536,6.363,1.831,13.309-1.944,19.057c-1.362,2.074-2.872,4.254-4.497,6.492 c-18.862-7.762-44.173-14.399-73.954-12.496c-47.26,3.015-81.766,25.703-102.387,44.208c-2.758,2.474-4.912,5.446-6.458,8.691 C2569.196,278.164,2570.295,274.617,2572.434,271.447z M2573.258,295.693c-0.689-6.653,1.7-13.018,6.731-17.53 c19.822-17.782,52.957-39.588,98.273-42.477c3.335-0.213,6.61-0.313,9.831-0.313c23.408,0,43.63,5.325,59.392,11.597 c-12.15,15.358-30.213,32.79-55.911,45.151c-40.903,19.679-80.474,16.92-106.48,11.116 C2580.235,302.156,2576.159,299.464,2573.258,295.693z M2767.19,287.545c-15.323,14.098-41.069,32.433-76.7,39.728 c-44.437,9.112-82.172-3.228-105.968-15.186c-1.806-0.908-3.371-2.088-4.795-3.4c1.26,0.484,2.549,0.908,3.889,1.206 c11.129,2.479,24.661,4.423,39.705,4.423c21.506,0,46.101-3.974,71.209-16.052c27.647-13.298,46.788-32.192,59.439-48.542 c3.105,1.389,6.071,2.785,8.728,4.161c6.104,3.162,10.124,8.869,11.029,15.659C2774.638,276.329,2772.255,282.892,2767.19,287.545z M303.025,408.297c-23.806,0-43.176,19.37-43.176,43.176s19.37,43.176,43.176,43.176s43.176-19.37,43.176-43.176 S326.831,408.297,303.025,408.297z M303.025,487.832c-20.049,0-36.36-16.308-36.36-36.36c0-20.049,16.311-36.36,36.36-36.36 c20.049,0,36.36,16.311,36.36,36.36C339.385,471.524,323.074,487.832,303.025,487.832z M2470.693,408.297 c-23.803,0-43.173,19.37-43.173,43.176s19.37,43.176,43.173,43.176c23.803,0,43.173-19.37,43.173-43.176 S2494.496,408.297,2470.693,408.297z M2470.693,487.832c-20.049,0-36.357-16.308-36.357-36.36c0-20.049,16.308-36.36,36.357-36.36 c20.049,0,36.356,16.311,36.356,36.36C2507.049,471.524,2490.741,487.832,2470.693,487.832z" style="fill: rgb(215, 144, 52);"/></g></svg>