<svg xmlns="http://www.w3.org/2000/svg" xmlns:xlink="http://www.w3.org/1999/xlink" preserveAspectRatio="xMidYMid meet" version="1.0" viewBox="-3.2 -2.6 485.2 502.4" zoomAndPan="magnify" style="fill: rgb(148, 166, 120);" original_string_length="1832"><g id="__id1_sdx64jg1vj"><path d="M442,52C401.5,16,348.5-2.6,294.5,0.3c-22.9,1.3-46,6.4-68.3,11.4c-37,8.3-75.2,16.8-112,7.3c-3.5-0.9-7.2-2-10.7-3.1 c-11.3-3.5-23-7.1-35-5.7c-13.9,1.6-24.6,11.3-28.8,26c-8.2,29,9.5,60.8,20.8,77.2c2.9,4.2,6.1,8.3,9.3,12.3 c8.1,10.3,16.4,20.9,19.8,33.9c2.5,9.7,2.6,20.6,0.3,34.1c-2.4,13.8-6.1,28.4-12,47.3c-9.9,31.7-23.3,62.2-39.8,90.9 c-2,3.5-4.1,7.1-6.3,10.5l-4.3,6.8c-15.1,24.3-30.7,49.3-27,77.1c2.5,18.9,14.5,36.9,32.8,49.3c14.5,9.9,32.9,16.6,56.4,20.6 c14,2.4,28.3,3.6,42.5,3.5c24.8,0,49.5-3.5,73.4-10.3c37.7-10.6,72.6-29.5,102.1-55.2c19.6-17.2,30.7-33.1,35.2-50.1 c4.2-16.2,2-33.1,0-49.5c-1-7.5-1.9-15.2-2.3-22.7c-2.3-46.9,21.1-94.5,59.5-121.4c6.9-4.8,14.3-9,21.4-13.2 c7.2-4.1,14.7-8.4,21.6-13.3c16.8-11.8,27.2-25.1,30.8-39.6C482,92,454.3,62.9,442,52z M472,124.2c-3.4,14-13.5,27-30,38.5 c-6.9,4.8-14.3,9.1-21.5,13.2c-7.2,4.1-14.7,8.4-21.6,13.3c-39,27.3-62.7,75.6-60.4,123.1c0.4,7.6,1.4,15.4,2.3,22.9 c2.1,16.2,4.2,32.9,0.1,48.7c-4.3,16.6-15.3,32.2-34.6,49.1c-47.8,42-110.4,65.1-173.6,65.1c-14.4,0-28.7-1.2-42.8-3.6 c-23.2-3.9-41.4-10.6-55.6-20.3C16.7,462,5,444.5,2.6,426.3c-3.6-27,11.8-51.8,26.7-75.8c1.4-2.3,2.8-4.6,4.2-6.8 c2.2-3.5,4.3-7.1,6.3-10.6c16.6-28.9,30-59.5,39.9-91.3c6-19.1,9.7-33.7,12.1-47.6c2.4-13.9,2.3-25-0.3-35 c-3.5-13.3-12-24.1-20.1-34.6c-3.1-4-6.3-8.1-9.2-12.3C51.1,96.2,33.7,65,41.7,36.7c3.9-13.9,14-23,27.1-24.5 c1.7-0.2,3.4-0.3,5.1-0.3c9.8,0,19.6,3,29,5.9c3.5,1.1,7.2,2.2,10.8,3.1c37.2,9.7,75.7,1.1,112.9-7.2c22.3-5,45.3-10.1,68-11.4 c53.5-2.9,106.1,15.5,146.1,51.2C452.7,64.2,479.8,92.6,472,124.2z" style="fill: inherit;"/></g></svg>